%TF.GenerationSoftware,KiCad,Pcbnew,9.0.1*%
%TF.CreationDate,2025-04-13T21:02:41-04:00*%
%TF.ProjectId,SuperPixel,53757065-7250-4697-9865-6c2e6b696361,rev?*%
%TF.SameCoordinates,Original*%
%TF.FileFunction,Legend,Top*%
%TF.FilePolarity,Positive*%
%FSLAX46Y46*%
G04 Gerber Fmt 4.6, Leading zero omitted, Abs format (unit mm)*
G04 Created by KiCad (PCBNEW 9.0.1) date 2025-04-13 21:02:41*
%MOMM*%
%LPD*%
G01*
G04 APERTURE LIST*
G04 Aperture macros list*
%AMRoundRect*
0 Rectangle with rounded corners*
0 $1 Rounding radius*
0 $2 $3 $4 $5 $6 $7 $8 $9 X,Y pos of 4 corners*
0 Add a 4 corners polygon primitive as box body*
4,1,4,$2,$3,$4,$5,$6,$7,$8,$9,$2,$3,0*
0 Add four circle primitives for the rounded corners*
1,1,$1+$1,$2,$3*
1,1,$1+$1,$4,$5*
1,1,$1+$1,$6,$7*
1,1,$1+$1,$8,$9*
0 Add four rect primitives between the rounded corners*
20,1,$1+$1,$2,$3,$4,$5,0*
20,1,$1+$1,$4,$5,$6,$7,0*
20,1,$1+$1,$6,$7,$8,$9,0*
20,1,$1+$1,$8,$9,$2,$3,0*%
%AMRotRect*
0 Rectangle, with rotation*
0 The origin of the aperture is its center*
0 $1 length*
0 $2 width*
0 $3 Rotation angle, in degrees counterclockwise*
0 Add horizontal line*
21,1,$1,$2,0,0,$3*%
G04 Aperture macros list end*
%ADD10C,0.101600*%
%ADD11C,0.127000*%
%ADD12C,0.100000*%
%ADD13C,0.504000*%
%ADD14C,0.120000*%
%ADD15RoundRect,0.152400X-1.063600X-0.609600X1.063600X-0.609600X1.063600X0.609600X-1.063600X0.609600X0*%
%ADD16C,1.524000*%
%ADD17RoundRect,0.152400X1.063600X0.609600X-1.063600X0.609600X-1.063600X-0.609600X1.063600X-0.609600X0*%
%ADD18RotRect,1.500000X1.000000X155.000000*%
%ADD19RotRect,1.500000X1.000000X185.000000*%
%ADD20RotRect,1.500000X1.000000X210.000000*%
%ADD21RotRect,1.500000X1.000000X305.000000*%
%ADD22RotRect,1.500000X1.000000X125.000000*%
%ADD23RotRect,1.500000X1.000000X140.000000*%
%ADD24RotRect,1.500000X1.000000X35.000000*%
%ADD25RotRect,1.500000X1.000000X15.000000*%
%ADD26RotRect,1.500000X1.000000X100.000000*%
%ADD27RotRect,1.500000X1.000000X150.000000*%
%ADD28R,1.500000X1.000000*%
%ADD29RotRect,1.500000X1.000000X20.000000*%
%ADD30RotRect,1.500000X1.000000X105.000000*%
%ADD31RotRect,1.500000X1.000000X40.000000*%
%ADD32RotRect,1.500000X1.000000X275.000000*%
%ADD33RotRect,1.500000X1.000000X345.000000*%
%ADD34RotRect,1.500000X1.000000X280.000000*%
%ADD35RotRect,1.500000X1.000000X245.000000*%
%ADD36RotRect,1.500000X1.000000X230.000000*%
%ADD37RotRect,1.500000X1.000000X250.000000*%
%ADD38RotRect,1.500000X1.000000X315.000000*%
%ADD39RotRect,1.500000X1.000000X110.000000*%
%ADD40RotRect,1.500000X1.000000X320.000000*%
%ADD41RotRect,1.500000X1.000000X255.000000*%
%ADD42RotRect,1.500000X1.000000X170.000000*%
%ADD43RotRect,1.500000X1.000000X350.000000*%
%ADD44RotRect,1.500000X1.000000X290.000000*%
%ADD45RotRect,1.500000X1.000000X70.000000*%
%ADD46RotRect,1.500000X1.000000X75.000000*%
%ADD47RotRect,1.500000X1.000000X200.000000*%
%ADD48RotRect,1.500000X1.000000X55.000000*%
%ADD49RotRect,1.500000X1.000000X85.000000*%
%ADD50RotRect,1.500000X1.000000X215.000000*%
%ADD51RotRect,1.500000X1.000000X335.000000*%
G04 APERTURE END LIST*
D10*
X162938809Y-131966520D02*
X162938809Y-131452473D01*
X162938809Y-131452473D02*
X162908571Y-131391997D01*
X162908571Y-131391997D02*
X162878333Y-131361759D01*
X162878333Y-131361759D02*
X162817857Y-131331520D01*
X162817857Y-131331520D02*
X162696904Y-131331520D01*
X162696904Y-131331520D02*
X162636428Y-131361759D01*
X162636428Y-131361759D02*
X162606190Y-131391997D01*
X162606190Y-131391997D02*
X162575952Y-131452473D01*
X162575952Y-131452473D02*
X162575952Y-131966520D01*
X162303809Y-131906044D02*
X162273571Y-131936282D01*
X162273571Y-131936282D02*
X162213095Y-131966520D01*
X162213095Y-131966520D02*
X162061904Y-131966520D01*
X162061904Y-131966520D02*
X162001428Y-131936282D01*
X162001428Y-131936282D02*
X161971190Y-131906044D01*
X161971190Y-131906044D02*
X161940952Y-131845568D01*
X161940952Y-131845568D02*
X161940952Y-131785092D01*
X161940952Y-131785092D02*
X161971190Y-131694378D01*
X161971190Y-131694378D02*
X162334047Y-131331520D01*
X162334047Y-131331520D02*
X161940952Y-131331520D01*
D11*
%TO.C,U2*%
X163345000Y-111111000D02*
X163345000Y-128256000D01*
X161440000Y-109206000D02*
X147470000Y-109206000D01*
X158950000Y-130161000D02*
X158946272Y-131171272D01*
X158446272Y-131671000D02*
X150451000Y-131671000D01*
X149951000Y-131171000D02*
X149951000Y-130161000D01*
D12*
X147470000Y-130161000D02*
X161440000Y-130161000D01*
D11*
X147470000Y-130161000D02*
X161440000Y-130161000D01*
X145565000Y-111111000D02*
X145565000Y-128256000D01*
X163345000Y-128256000D02*
G75*
G02*
X161440000Y-130161000I-1905001J1D01*
G01*
X161440000Y-109206000D02*
G75*
G02*
X163345000Y-111111000I-1J-1905001D01*
G01*
X158946272Y-131171272D02*
G75*
G02*
X158446272Y-131670999I-500018J291D01*
G01*
X150451000Y-131671000D02*
G75*
G02*
X149951000Y-131171000I0J500000D01*
G01*
X147470000Y-130161000D02*
G75*
G02*
X145565000Y-128256000I0J1905000D01*
G01*
X145565000Y-111111000D02*
G75*
G02*
X147470000Y-109206000I1905000J0D01*
G01*
D13*
X163611000Y-130020000D02*
G75*
G02*
X163107000Y-130020000I-252000J0D01*
G01*
X163107000Y-130020000D02*
G75*
G02*
X163611000Y-130020000I252000J0D01*
G01*
X162468000Y-129140000D02*
G75*
G02*
X161964000Y-129140000I-252000J0D01*
G01*
X161964000Y-129140000D02*
G75*
G02*
X162468000Y-129140000I252000J0D01*
G01*
D14*
%TO.C,D13*%
X171969946Y-40978263D02*
X169835722Y-45555117D01*
X172103325Y-42585188D02*
X171342613Y-44216543D01*
X172567961Y-40760603D02*
X171969946Y-40978263D01*
X176179876Y-48513445D02*
X169835722Y-45555117D01*
X176179876Y-48513445D02*
X178504278Y-43528753D01*
X176997387Y-44867327D02*
X176236675Y-46498682D01*
X178504278Y-43528753D02*
X172567961Y-40760603D01*
%TO.C,D11*%
X147202860Y-38513797D02*
X147642997Y-43544581D01*
X147611928Y-38026290D02*
X147202860Y-38513797D01*
X148121834Y-39838745D02*
X148278712Y-41631896D01*
X153501288Y-39368104D02*
X153658166Y-41161255D01*
X154137003Y-37455419D02*
X147611928Y-38026290D01*
X154616360Y-42934490D02*
X147642997Y-43544581D01*
X154616360Y-42934490D02*
X154137003Y-37455419D01*
%TO.C,D28*%
X164490679Y-64618778D02*
X167015676Y-68992200D01*
X164655389Y-64004068D02*
X164490679Y-64618778D01*
X165883497Y-65431214D02*
X166783496Y-66990060D01*
X170327854Y-60729072D02*
X164655389Y-64004068D01*
X170560034Y-62731212D02*
X171460033Y-64290058D01*
X173077855Y-65492201D02*
X167015676Y-68992200D01*
X173077855Y-65492201D02*
X170327854Y-60729072D01*
%TO.C,D3*%
X112856403Y-108831301D02*
X116613328Y-114196747D01*
X114830694Y-108425506D02*
X116305169Y-107393071D01*
X116613328Y-114196747D02*
X117240054Y-114307257D01*
X117240054Y-114307257D02*
X121376773Y-111410697D01*
X117361739Y-105676632D02*
X112856403Y-108831301D01*
X117361739Y-105676632D02*
X121376773Y-111410697D01*
X117928007Y-112848927D02*
X119402482Y-111816492D01*
%TO.C,D15*%
X190078581Y-55312072D02*
X188604105Y-56344508D01*
X190644849Y-62484367D02*
X186629815Y-56750302D01*
X190644849Y-62484367D02*
X195150185Y-59329698D01*
X190766534Y-53853742D02*
X186629815Y-56750302D01*
X191393260Y-53964252D02*
X190766534Y-53853742D01*
X193175895Y-59735492D02*
X191701419Y-60767928D01*
X195150185Y-59329698D02*
X191393260Y-53964252D01*
%TO.C,D14*%
X182030189Y-47875033D02*
X180873170Y-49253914D01*
X182317257Y-46288341D02*
X179071179Y-50156863D01*
X182951230Y-46232876D02*
X182317257Y-46288341D01*
X184433489Y-54656377D02*
X179071179Y-50156863D01*
X184433489Y-54656377D02*
X187968821Y-50443137D01*
X186166830Y-51346086D02*
X185009811Y-52724967D01*
X187968821Y-50443137D02*
X182951230Y-46232876D01*
%TO.C,D24*%
X170710989Y-98289476D02*
X173865660Y-102794805D01*
X170710989Y-98289476D02*
X176445052Y-94274441D01*
X173459863Y-100820517D02*
X172427424Y-99346043D01*
X173865660Y-102794805D02*
X179231103Y-99037881D01*
X177883288Y-97723203D02*
X176850849Y-96248729D01*
X179231103Y-99037881D02*
X179341613Y-98411151D01*
X179341613Y-98411151D02*
X176445052Y-94274441D01*
%TO.C,D23*%
X160127507Y-101339574D02*
X161551014Y-106652160D01*
X160127507Y-101339574D02*
X166888986Y-99527840D01*
X161551014Y-106652160D02*
X167877825Y-104956896D01*
X161844937Y-104658145D02*
X161379060Y-102919478D01*
X167060940Y-103260522D02*
X166595063Y-101521855D01*
X167877825Y-104956896D02*
X168196025Y-104405759D01*
X168196025Y-104405759D02*
X166888986Y-99527840D01*
%TO.C,D17*%
X197510675Y-81989302D02*
X196295140Y-75095648D01*
X197510675Y-81989302D02*
X202927116Y-81034238D01*
X200028605Y-75249679D02*
X198255950Y-75562244D01*
X200966306Y-80567642D02*
X199193651Y-80880207D01*
X201268419Y-74218726D02*
X196295140Y-75095648D01*
X201789722Y-74583748D02*
X201268419Y-74218726D01*
X202927116Y-81034238D02*
X201789722Y-74583748D01*
%TO.C,D30*%
X139691731Y-62570576D02*
X138791731Y-64129423D01*
X139698912Y-60958142D02*
X137173911Y-65331568D01*
X140313622Y-60793430D02*
X139698912Y-60958142D01*
X143236088Y-68831569D02*
X137173911Y-65331568D01*
X143236088Y-68831569D02*
X145986089Y-64068432D01*
X144368269Y-65270577D02*
X143468269Y-66829424D01*
X145986089Y-64068432D02*
X140313622Y-60793430D01*
%TO.C,D29*%
X152310000Y-62460000D02*
X152310000Y-67510000D01*
X152760000Y-62010000D02*
X152310000Y-62460000D01*
X153109999Y-63860000D02*
X153109999Y-65660000D01*
X158510001Y-63860000D02*
X158510001Y-65660000D01*
X159310000Y-62010000D02*
X152760000Y-62010000D01*
X159310000Y-67510000D02*
X152310000Y-67510000D01*
X159310000Y-67510000D02*
X159310000Y-62010000D01*
%TO.C,D22*%
X168980520Y-125462919D02*
X170861633Y-130631222D01*
X168980520Y-125462919D02*
X175558367Y-123068778D01*
X170861633Y-130631222D02*
X177016617Y-128390991D01*
X170980648Y-128619178D02*
X170365010Y-126927731D01*
X176054990Y-126772269D02*
X175439352Y-125080822D01*
X177016617Y-128390991D02*
X177285571Y-127814219D01*
X177285571Y-127814219D02*
X175558367Y-123068778D01*
%TO.C,D26*%
X178388114Y-82437479D02*
X176576382Y-75675998D01*
X178388114Y-82437479D02*
X183700698Y-81013972D01*
X180309061Y-75504045D02*
X178570395Y-75969922D01*
X181454299Y-74368962D02*
X176576382Y-75675998D01*
X181706685Y-80720048D02*
X179968019Y-81185925D01*
X182005436Y-74687160D02*
X181454299Y-74368962D01*
X183700698Y-81013972D02*
X182005436Y-74687160D01*
%TO.C,D21*%
X178911179Y-120923138D02*
X182446512Y-125136374D01*
X178911179Y-120923138D02*
X184273488Y-116423626D01*
X181870189Y-123204967D02*
X180713169Y-121826087D01*
X182446512Y-125136374D02*
X187464099Y-120926118D01*
X186006831Y-119733913D02*
X184849811Y-118355033D01*
X187464099Y-120926118D02*
X187519566Y-120292143D01*
X187519566Y-120292143D02*
X184273488Y-116423626D01*
%TO.C,D5*%
X106795424Y-84672999D02*
X107366292Y-91198071D01*
X107366292Y-91198071D02*
X107853802Y-91607139D01*
X107853802Y-91607139D02*
X112884576Y-91167001D01*
X108708104Y-85308712D02*
X110501255Y-85151831D01*
X109178745Y-90688169D02*
X110971896Y-90531288D01*
X112274487Y-84193639D02*
X106795424Y-84672999D01*
X112274487Y-84193639D02*
X112884576Y-91167001D01*
%TO.C,D35*%
X140537510Y-104470429D02*
X146864321Y-106165692D01*
X141789063Y-102890522D02*
X142254936Y-101151854D01*
X141961010Y-99157839D02*
X140537510Y-104470429D01*
X141961010Y-99157839D02*
X148722490Y-100969571D01*
X146864321Y-106165692D02*
X147415458Y-105847494D01*
X147005064Y-104288146D02*
X147470937Y-102549478D01*
X147415458Y-105847494D02*
X148722490Y-100969571D01*
%TO.C,D33*%
X126344010Y-85590707D02*
X127481407Y-92041195D01*
X127481407Y-92041195D02*
X128002712Y-92406219D01*
X128002712Y-92406219D02*
X132975990Y-91529293D01*
X128304823Y-86057302D02*
X130077477Y-85744735D01*
X129242523Y-91375265D02*
X131015177Y-91062698D01*
X131760450Y-84635640D02*
X126344010Y-85590707D01*
X131760450Y-84635640D02*
X132975990Y-91529293D01*
%TO.C,D7*%
X110620025Y-66996510D02*
X110837685Y-67594524D01*
X110837685Y-67594524D02*
X115414536Y-69728749D01*
X112444609Y-67461146D02*
X114075964Y-68221860D01*
X113388176Y-61060193D02*
X110620025Y-66996510D01*
X114726748Y-62567082D02*
X116358103Y-63327796D01*
X118372866Y-63384596D02*
X113388176Y-61060193D01*
X118372866Y-63384596D02*
X115414536Y-69728749D01*
%TO.C,D8*%
X116702879Y-56738771D02*
X116758343Y-57372748D01*
X116758343Y-57372748D02*
X120626865Y-60618816D01*
X118345031Y-57659812D02*
X119723914Y-58816829D01*
X120913135Y-51721184D02*
X116702879Y-56738771D01*
X121816086Y-53523171D02*
X123194969Y-54680188D01*
X125126378Y-55256507D02*
X120626865Y-60618816D01*
X125126378Y-55256507D02*
X120913135Y-51721184D01*
%TO.C,D32*%
X126432685Y-79875507D02*
X126701637Y-80452278D01*
X126701637Y-80452278D02*
X131447085Y-82179479D01*
X128290822Y-80179352D02*
X129982269Y-80794988D01*
X128672915Y-73720521D02*
X126432685Y-79875507D01*
X130137731Y-75105012D02*
X131829178Y-75720648D01*
X133841224Y-75601630D02*
X128672915Y-73720521D01*
X133841224Y-75601630D02*
X131447085Y-82179479D01*
%TO.C,D37*%
X124550588Y-105979667D02*
X129182134Y-110611217D01*
X126424415Y-105237209D02*
X127697207Y-103964413D01*
X128439664Y-102090584D02*
X124550588Y-105979667D01*
X128439664Y-102090584D02*
X133389412Y-107040333D01*
X129182134Y-110611217D02*
X129818526Y-110611217D01*
X129818526Y-110611217D02*
X133389412Y-107040333D01*
X130242793Y-109055587D02*
X131515585Y-107782791D01*
%TO.C,D16*%
X194912915Y-71389479D02*
X192518776Y-64811630D01*
X194912915Y-71389479D02*
X200081224Y-69508370D01*
X196222269Y-64315012D02*
X194530821Y-64930647D01*
X197264225Y-63084430D02*
X192518776Y-64811630D01*
X197840993Y-63353383D02*
X197264225Y-63084430D01*
X198069179Y-69389353D02*
X196377731Y-70004988D01*
X200081224Y-69508370D02*
X197840993Y-63353383D01*
%TO.C,D2*%
X120691179Y-119276865D02*
X125708770Y-123487124D01*
X122493170Y-118373914D02*
X123650189Y-116995033D01*
X124226511Y-115063623D02*
X120691179Y-119276865D01*
X124226511Y-115063623D02*
X129588821Y-119563135D01*
X125708770Y-123487124D02*
X126342743Y-123431659D01*
X126342743Y-123431659D02*
X129588821Y-119563135D01*
X126629811Y-121844967D02*
X127786830Y-120466086D01*
%TO.C,D6*%
X107134309Y-78784322D02*
X107452509Y-79335459D01*
X107452509Y-79335459D02*
X112330427Y-80642489D01*
X108829573Y-72457511D02*
X107134309Y-78784322D01*
X109011853Y-78925065D02*
X110750522Y-79390937D01*
X110409478Y-73709063D02*
X112148147Y-74174935D01*
X114142161Y-73881010D02*
X108829573Y-72457511D01*
X114142161Y-73881010D02*
X112330427Y-80642489D01*
%TO.C,D12*%
X159962564Y-38165332D02*
X159085641Y-43138611D01*
X160483868Y-37800311D02*
X159962564Y-38165332D01*
X160507301Y-39682982D02*
X160194735Y-41455636D01*
X165825265Y-40620682D02*
X165512699Y-42393336D01*
X165979294Y-44354149D02*
X159085641Y-43138611D01*
X165979294Y-44354149D02*
X166934359Y-38937707D01*
X166934359Y-38937707D02*
X160483868Y-37800311D01*
%TO.C,D36*%
X134030586Y-116021579D02*
X140481074Y-117158973D01*
X134985647Y-110605139D02*
X134030586Y-116021579D01*
X134985647Y-110605139D02*
X141879300Y-111820675D01*
X135139678Y-114338603D02*
X135452244Y-112565949D01*
X140457642Y-115276305D02*
X140770208Y-113503651D01*
X140481074Y-117158973D02*
X141002381Y-116793951D01*
X141002381Y-116793951D02*
X141879300Y-111820675D01*
%TO.C,D31*%
X130055419Y-63592998D02*
X130626291Y-70118071D01*
X130626291Y-70118071D02*
X131113798Y-70527141D01*
X131113798Y-70527141D02*
X136144581Y-70087002D01*
X131968104Y-64228712D02*
X133761255Y-64071833D01*
X132438745Y-69608167D02*
X134231896Y-69451288D01*
X135534488Y-63113640D02*
X130055419Y-63592998D01*
X135534488Y-63113640D02*
X136144581Y-70087002D01*
%TO.C,D4*%
X108127312Y-97136612D02*
X110367547Y-103291596D01*
X110139353Y-97255622D02*
X111830806Y-96639991D01*
X110367547Y-103291596D02*
X110944316Y-103560551D01*
X110944316Y-103560551D02*
X115689764Y-101833346D01*
X111986270Y-102329967D02*
X113677723Y-101714336D01*
X113295618Y-95255501D02*
X108127312Y-97136612D01*
X113295618Y-95255501D02*
X115689764Y-101833346D01*
%TO.C,D19*%
X193578776Y-104228372D02*
X195972918Y-97650524D01*
X193578776Y-104228372D02*
X198747082Y-106109476D01*
X197282269Y-104724988D02*
X195590820Y-104109354D01*
X198747082Y-106109476D02*
X200987313Y-99954492D01*
X199129180Y-99650646D02*
X197437731Y-99035012D01*
X200718360Y-99377720D02*
X195972918Y-97650524D01*
X200987313Y-99954492D02*
X200718360Y-99377720D01*
%TO.C,D25*%
X176797839Y-92188990D02*
X178609573Y-85427511D01*
X176797839Y-92188990D02*
X182110427Y-93612489D01*
X180530521Y-92360937D02*
X178791853Y-91895065D01*
X181928147Y-87144935D02*
X180189479Y-86679063D01*
X182110427Y-93612489D02*
X183805691Y-87285678D01*
X183487491Y-86734541D02*
X178609573Y-85427511D01*
X183805691Y-87285678D02*
X183487491Y-86734541D01*
%TO.C,D10*%
X135414950Y-41880226D02*
X137142154Y-46625667D01*
X135683904Y-41303454D02*
X135414950Y-41880226D01*
X136645530Y-42922177D02*
X137261169Y-44613623D01*
X141719873Y-41075267D02*
X142335512Y-42766713D01*
X141838888Y-39063223D02*
X135683904Y-41303454D01*
X143720001Y-44231526D02*
X137142154Y-46625667D01*
X143720001Y-44231526D02*
X141838888Y-39063223D01*
%TO.C,D20*%
X187259815Y-113559695D02*
X191274852Y-107825633D01*
X187259815Y-113559695D02*
X191765148Y-116714367D01*
X190708580Y-114997932D02*
X189234106Y-113965493D01*
X191765148Y-116714367D02*
X195522075Y-111348921D01*
X193805894Y-110574507D02*
X192331420Y-109542068D01*
X195411566Y-110722195D02*
X191274852Y-107825633D01*
X195522075Y-111348921D02*
X195411566Y-110722195D01*
%TO.C,D27*%
X174392863Y-70405776D02*
X175002954Y-63432415D01*
X174392863Y-70405776D02*
X179871928Y-70885127D01*
X178098695Y-69926938D02*
X176305544Y-69770059D01*
X178569338Y-64547483D02*
X176776187Y-64390604D01*
X179871928Y-70885127D02*
X180442798Y-64360056D01*
X180033729Y-63872547D02*
X175002954Y-63432415D01*
X180442798Y-64360056D02*
X180033729Y-63872547D01*
%TO.C,D9*%
X125113743Y-48603469D02*
X128010304Y-52740180D01*
X125224253Y-47976742D02*
X125113743Y-48603469D01*
X126572068Y-49291420D02*
X127604507Y-50765894D01*
X130589696Y-44219820D02*
X125224253Y-47976742D01*
X130995493Y-46194106D02*
X132027932Y-47668580D01*
X133744367Y-48725147D02*
X128010304Y-52740180D01*
X133744367Y-48725147D02*
X130589696Y-44219820D01*
%TO.C,D1*%
X131922360Y-127628508D02*
X137858678Y-130396658D01*
X133429252Y-126289925D02*
X134189967Y-124658579D01*
X134246763Y-122643812D02*
X131922360Y-127628508D01*
X134246763Y-122643812D02*
X140590918Y-125602140D01*
X137858678Y-130396658D02*
X138456697Y-130178998D01*
X138323311Y-128572069D02*
X139084026Y-126940723D01*
X138456697Y-130178998D02*
X140590918Y-125602140D01*
%TO.C,D18*%
X196825419Y-92887002D02*
X197435512Y-85913640D01*
X196825419Y-92887002D02*
X202304488Y-93366360D01*
X200531256Y-92408168D02*
X198738104Y-92251288D01*
X201001896Y-87028712D02*
X199208744Y-86871832D01*
X202304488Y-93366360D02*
X202875359Y-86841285D01*
X202466294Y-86353778D02*
X197435512Y-85913640D01*
X202875359Y-86841285D02*
X202466294Y-86353778D01*
%TO.C,D34*%
X129920584Y-97249671D02*
X134552133Y-101881217D01*
X131794415Y-96507209D02*
X133067208Y-95234414D01*
X133809667Y-93360583D02*
X129920584Y-97249671D01*
X133809667Y-93360583D02*
X138759416Y-98310329D01*
X134552133Y-101881217D02*
X135188531Y-101881219D01*
X135188531Y-101881219D02*
X138759416Y-98310329D01*
X135612792Y-100325586D02*
X136885585Y-99052791D01*
%TD*%
%LPC*%
D15*
%TO.C,U2*%
X162910000Y-127240000D03*
D16*
X162075000Y-127240000D03*
D15*
X162910000Y-124700000D03*
D16*
X162075000Y-124700000D03*
D15*
X162910000Y-122160000D03*
D16*
X162075000Y-122160000D03*
D15*
X162910000Y-119620000D03*
D16*
X162075000Y-119620000D03*
D15*
X162910000Y-117080000D03*
D16*
X162075000Y-117080000D03*
D15*
X162910000Y-114540000D03*
D16*
X162075000Y-114540000D03*
D15*
X162910000Y-112000000D03*
D16*
X162075000Y-112000000D03*
X146835000Y-112000000D03*
D17*
X146000000Y-112000000D03*
D16*
X146835000Y-114540000D03*
D17*
X146000000Y-114540000D03*
D16*
X146835000Y-117080000D03*
D17*
X146000000Y-117080000D03*
D16*
X146835000Y-119620000D03*
D17*
X146000000Y-119620000D03*
D16*
X146835000Y-122160000D03*
D17*
X146000000Y-122160000D03*
D16*
X146835000Y-124700000D03*
D17*
X146000000Y-124700000D03*
D16*
X146835000Y-127240000D03*
D17*
X146000000Y-127240000D03*
%TD*%
D18*
%TO.C,D13*%
X172625736Y-42056427D03*
X171273357Y-44956612D03*
X175714264Y-47027443D03*
X177066643Y-44127258D03*
%TD*%
D19*
%TO.C,D11*%
X148309874Y-39119620D03*
X148588772Y-42307443D03*
X153470126Y-41880380D03*
X153191228Y-38692557D03*
%TD*%
D20*
%TO.C,D28*%
X165750000Y-64700000D03*
X167349998Y-67471282D03*
X171593530Y-65021272D03*
X169993532Y-62249990D03*
%TD*%
D21*
%TO.C,D3*%
X117211205Y-113045645D03*
X119832493Y-111210200D03*
X117021971Y-107196353D03*
X114400683Y-109031798D03*
%TD*%
D22*
%TO.C,D15*%
X190795383Y-55115354D03*
X188174095Y-56950799D03*
X190984617Y-60964646D03*
X193605905Y-59129201D03*
%TD*%
D23*
%TO.C,D14*%
X182671652Y-47499498D03*
X180614731Y-49950840D03*
X184368348Y-53100502D03*
X186425269Y-50649160D03*
%TD*%
D24*
%TO.C,D24*%
X178080000Y-98440000D03*
X176244558Y-95818713D03*
X172230712Y-98629246D03*
X174066154Y-101250533D03*
%TD*%
D25*
%TO.C,D23*%
X167000629Y-104001372D03*
X166172410Y-100910409D03*
X161439371Y-102178628D03*
X162267590Y-105269591D03*
%TD*%
D26*
%TO.C,D17*%
X200761384Y-75374327D03*
X197610000Y-75930000D03*
X198460872Y-80755559D03*
X201612256Y-80199886D03*
%TD*%
D27*
%TO.C,D30*%
X140258238Y-62089359D03*
X138658238Y-64860640D03*
X142901762Y-67310641D03*
X144501762Y-64539360D03*
%TD*%
D28*
%TO.C,D29*%
X153360000Y-63160000D03*
X153360000Y-66360000D03*
X158260000Y-66360000D03*
X158260000Y-63160000D03*
%TD*%
D29*
%TO.C,D22*%
X176059479Y-127515555D03*
X174965017Y-124508540D03*
X170360521Y-126184445D03*
X171454983Y-129191460D03*
%TD*%
D30*
%TO.C,D26*%
X181049910Y-75564355D03*
X177958949Y-76392573D03*
X179227170Y-81125615D03*
X182318131Y-80297397D03*
%TD*%
D31*
%TO.C,D21*%
X186265268Y-120430839D03*
X184208350Y-117979495D03*
X180454732Y-121129161D03*
X182511650Y-123580505D03*
%TD*%
D32*
%TO.C,D5*%
X108459624Y-90500128D03*
X111647445Y-90221232D03*
X111220376Y-85339872D03*
X108032555Y-85618768D03*
%TD*%
D33*
%TO.C,D35*%
X146582409Y-104899585D03*
X147410631Y-101808624D03*
X142677591Y-100540415D03*
X141849369Y-103631376D03*
%TD*%
D34*
%TO.C,D33*%
X128509748Y-91250617D03*
X131661132Y-90694942D03*
X130810252Y-85869383D03*
X127658868Y-86425058D03*
%TD*%
D35*
%TO.C,D7*%
X111915846Y-66938738D03*
X114816031Y-68291114D03*
X116886866Y-63850204D03*
X113986681Y-62497828D03*
%TD*%
D36*
%TO.C,D8*%
X117969501Y-57018351D03*
X120420841Y-59075274D03*
X123570499Y-55321649D03*
X121119159Y-53264726D03*
%TD*%
D37*
%TO.C,D32*%
X127718544Y-79705016D03*
X130725560Y-80799479D03*
X132401456Y-76194984D03*
X129394440Y-75100521D03*
%TD*%
D38*
%TO.C,D37*%
X129571047Y-109373785D03*
X131833790Y-107111046D03*
X128368953Y-103646215D03*
X126106210Y-105908954D03*
%TD*%
D39*
%TO.C,D16*%
X196965560Y-64310521D03*
X193958544Y-65404984D03*
X195634440Y-70009479D03*
X198641456Y-68915016D03*
%TD*%
D40*
%TO.C,D2*%
X125988348Y-122220502D03*
X128045269Y-119769160D03*
X124291652Y-116619498D03*
X122234731Y-119070840D03*
%TD*%
D41*
%TO.C,D6*%
X108400415Y-78502410D03*
X111491376Y-79330633D03*
X112759585Y-74597590D03*
X109668624Y-73769367D03*
%TD*%
D42*
%TO.C,D12*%
X160875058Y-39037029D03*
X160319384Y-42188413D03*
X165144942Y-43039289D03*
X165700616Y-39887905D03*
%TD*%
D43*
%TO.C,D36*%
X140089886Y-115922254D03*
X140645561Y-112770871D03*
X135820000Y-111920000D03*
X135264325Y-115071383D03*
%TD*%
D32*
%TO.C,D31*%
X131719622Y-69420127D03*
X134907445Y-69141228D03*
X134480378Y-64259873D03*
X131292555Y-64538772D03*
%TD*%
D44*
%TO.C,D4*%
X111242984Y-102334459D03*
X114250000Y-101240000D03*
X112574092Y-96635499D03*
X109567076Y-97729958D03*
%TD*%
D45*
%TO.C,D19*%
X199701455Y-100124983D03*
X196694440Y-99030516D03*
X195018545Y-103635017D03*
X198025560Y-104729484D03*
%TD*%
D46*
%TO.C,D25*%
X182539585Y-87567590D03*
X179448624Y-86739367D03*
X178180415Y-91472410D03*
X181271376Y-92300633D03*
%TD*%
D47*
%TO.C,D10*%
X136641042Y-42178890D03*
X137735504Y-45185905D03*
X142340000Y-43510000D03*
X141245538Y-40502985D03*
%TD*%
D48*
%TO.C,D20*%
X194235908Y-111180800D03*
X191614622Y-109345356D03*
X188804092Y-113359200D03*
X191425378Y-115194644D03*
%TD*%
D49*
%TO.C,D27*%
X179244880Y-64857541D03*
X176057059Y-64578641D03*
X175630002Y-69460001D03*
X178817823Y-69738901D03*
%TD*%
D50*
%TO.C,D9*%
X126375356Y-48574623D03*
X128210798Y-51195910D03*
X132224644Y-48385377D03*
X130389202Y-45764090D03*
%TD*%
D51*
%TO.C,D1*%
X137800903Y-129100832D03*
X139153278Y-126200648D03*
X134712375Y-124129816D03*
X133360000Y-127030000D03*
%TD*%
D49*
%TO.C,D18*%
X201677445Y-87338772D03*
X198489622Y-87059873D03*
X198062555Y-91941228D03*
X201250378Y-92220127D03*
%TD*%
D38*
%TO.C,D34*%
X134941044Y-100643781D03*
X137203785Y-98381040D03*
X133738956Y-94916219D03*
X131476215Y-97178960D03*
%TD*%
%LPD*%
M02*
