M48
; DRILL file {KiCad 9.0.1} date 2025-04-13T21:02:45-0400
; FORMAT={-:-/ absolute / metric / decimal}
; #@! TF.CreationDate,2025-04-13T21:02:45-04:00
; #@! TF.GenerationSoftware,Kicad,Pcbnew,9.0.1
; #@! TF.FileFunction,Plated,1,2,PTH
FMAT,2
METRIC
; #@! TA.AperFunction,Plated,PTH,ViaDrill
T1C0.300
; #@! TA.AperFunction,Plated,PTH,ComponentDrill
T2C0.889
%
G90
G05
T1
X109.55Y-88.51
X110.2Y-82.08
X110.34Y-77.56
X110.86Y-93.75
X112.41Y-72.43
X112.61Y-105.43
X112.84Y-102.38
X114.24Y-66.17
X115.61Y-105.43
X115.63Y-62.88
X117.04Y-110.19
X118.14Y-60.41
X118.41Y-115.39
X120.73Y-114.24
X121.22Y-55.1
X124.15Y-120.31
X124.92Y-52.62
X125.74Y-119.71
X127.36Y-82.93
X128.82Y-105.58
X129.72Y-48.15
X129.99Y-94.35
X130.74Y-82.95
X131.05Y-122.44
X131.52Y-88.82
X131.66Y-72.03
X131.89Y-78.64
X132.98Y-61.83
X133.08Y-100.08
X133.11Y-93.07
X133.13Y-109.41
X133.19Y-46.48
X133.58Y-67.12
X135.41Y-96.43
X136.16Y-63.91
X137.1Y-43.58
X137.66Y-113.03
X139.39Y-42.11
X139.77Y-99.44
X140.59Y-66.51
X145.06Y-101.03
X145.98Y-41.76
X148.08Y-66.08
X150.7Y-40.45
X151.02Y-42.07
X155.84Y-62.8
X157.42Y-40.65
X161.12Y-66.39
X161.91Y-64.13
X162.5Y-42.41
X162.55Y-103.66
X162.76Y-40.65
X164.05Y-103.14
X167.81Y-42.85
X168.63Y-102.39
X169.97Y-66.1
X171.53Y-127.49
X172.48Y-43.77
X173.06Y-126.8
X174.19Y-97.48
X174.64Y-43.58
X175.35Y-71.94
X175.56Y-60.96
X177.85Y-93.83
X178.36Y-78.34
X178.5Y-122.09
X178.76Y-88.95
X179.16Y-73.09
X179.38Y-83.28
X179.6Y-47.9
X183.26Y-49.98
X183.38Y-120.96
X186.88Y-117.16
X186.89Y-53.88
X188.07Y-119.39
X190.9Y-57.99
X191.4Y-112.33
X192.52Y-62.26
X194.07Y-106.47
X195.12Y-64.06
X195.56Y-101.07
X198.0Y-72.84
X198.31Y-93.73
X198.35Y-97.41
X199.61Y-88.93
X199.74Y-77.94
X199.97Y-84.35
X200.49Y-72.96
X202.5Y-85.37
T2
X146.835Y-112.0
X146.835Y-114.54
X146.835Y-117.08
X146.835Y-119.62
X146.835Y-122.16
X146.835Y-124.7
X146.835Y-127.24
X162.075Y-112.0
X162.075Y-114.54
X162.075Y-117.08
X162.075Y-119.62
X162.075Y-122.16
X162.075Y-124.7
X162.075Y-127.24
M30
